<mxfile host="app.diagrams.net" modified="2023-04-02T11:48:05.217Z" agent="Mozilla/5.0 (Windows NT 10.0; Win64; x64) AppleWebKit/537.36 (KHTML, like Gecko) Chrome/111.0.0.0 Safari/537.36" etag="6OnMc7qBTCVDana37EH2" version="21.1.2" type="device">
  <diagram id="C5RBs43oDa-KdzZeNtuy" name="Page-1">
    <mxGraphModel dx="1290" dy="631" grid="1" gridSize="10" guides="1" tooltips="1" connect="1" arrows="1" fold="1" page="1" pageScale="1" pageWidth="827" pageHeight="1169" math="0" shadow="0">
      <root>
        <mxCell id="WIyWlLk6GJQsqaUBKTNV-0" />
        <mxCell id="WIyWlLk6GJQsqaUBKTNV-1" parent="WIyWlLk6GJQsqaUBKTNV-0" />
        <mxCell id="0I59w6XoIKjxYQVEed8I-0" value="WaterTower" style="swimlane;fontStyle=1;align=center;verticalAlign=top;childLayout=stackLayout;horizontal=1;startSize=26;horizontalStack=0;resizeParent=1;resizeParentMax=0;resizeLast=0;collapsible=1;marginBottom=0;whiteSpace=wrap;html=1;" parent="WIyWlLk6GJQsqaUBKTNV-1" vertex="1">
          <mxGeometry x="420" y="310" width="190" height="230" as="geometry">
            <mxRectangle x="190" y="100" width="110" height="30" as="alternateBounds" />
          </mxGeometry>
        </mxCell>
        <mxCell id="0I59w6XoIKjxYQVEed8I-1" value="- _maxLevel: double&lt;br&gt;- _currentLevel: double&lt;br&gt;- _faucet: Faucet&lt;br&gt;- _pumps: List&amp;lt;Pump&amp;gt;&lt;br&gt;- WATERSPEED: double" style="text;strokeColor=none;fillColor=none;align=left;verticalAlign=top;spacingLeft=4;spacingRight=4;overflow=hidden;rotatable=0;points=[[0,0.5],[1,0.5]];portConstraint=eastwest;whiteSpace=wrap;html=1;" parent="0I59w6XoIKjxYQVEed8I-0" vertex="1">
          <mxGeometry y="26" width="190" height="84" as="geometry" />
        </mxCell>
        <mxCell id="0I59w6XoIKjxYQVEed8I-2" value="" style="line;strokeWidth=1;fillColor=none;align=left;verticalAlign=middle;spacingTop=-1;spacingLeft=3;spacingRight=3;rotatable=0;labelPosition=right;points=[];portConstraint=eastwest;strokeColor=inherit;" parent="0I59w6XoIKjxYQVEed8I-0" vertex="1">
          <mxGeometry y="110" width="190" height="8" as="geometry" />
        </mxCell>
        <mxCell id="0I59w6XoIKjxYQVEed8I-3" value="+ CheckWaterLevel(): void&lt;br&gt;- FillTower(): double&lt;br&gt;- GetTotalPumpPower(): double&lt;br&gt;+ GetWater(): double&lt;br&gt;+ AddPump(pump: Pump): void&lt;br&gt;+ RemovePump(power: double): Pump" style="text;strokeColor=none;fillColor=none;align=left;verticalAlign=top;spacingLeft=4;spacingRight=4;overflow=hidden;rotatable=0;points=[[0,0.5],[1,0.5]];portConstraint=eastwest;whiteSpace=wrap;html=1;" parent="0I59w6XoIKjxYQVEed8I-0" vertex="1">
          <mxGeometry y="118" width="190" height="112" as="geometry" />
        </mxCell>
        <mxCell id="0I59w6XoIKjxYQVEed8I-4" value="Pump" style="swimlane;fontStyle=1;align=center;verticalAlign=top;childLayout=stackLayout;horizontal=1;startSize=26;horizontalStack=0;resizeParent=1;resizeParentMax=0;resizeLast=0;collapsible=1;marginBottom=0;whiteSpace=wrap;html=1;" parent="WIyWlLk6GJQsqaUBKTNV-1" vertex="1">
          <mxGeometry x="510" y="620" width="160" height="150" as="geometry" />
        </mxCell>
        <mxCell id="0I59w6XoIKjxYQVEed8I-5" value="- _power: double&lt;br&gt;- _isOn: bool&lt;br&gt;+ Power: double&lt;br&gt;+ IsOn: bool" style="text;strokeColor=none;fillColor=none;align=left;verticalAlign=top;spacingLeft=4;spacingRight=4;overflow=hidden;rotatable=0;points=[[0,0.5],[1,0.5]];portConstraint=eastwest;whiteSpace=wrap;html=1;" parent="0I59w6XoIKjxYQVEed8I-4" vertex="1">
          <mxGeometry y="26" width="160" height="64" as="geometry" />
        </mxCell>
        <mxCell id="0I59w6XoIKjxYQVEed8I-6" value="" style="line;strokeWidth=1;fillColor=none;align=left;verticalAlign=middle;spacingTop=-1;spacingLeft=3;spacingRight=3;rotatable=0;labelPosition=right;points=[];portConstraint=eastwest;strokeColor=inherit;" parent="0I59w6XoIKjxYQVEed8I-4" vertex="1">
          <mxGeometry y="90" width="160" height="8" as="geometry" />
        </mxCell>
        <mxCell id="0I59w6XoIKjxYQVEed8I-7" value="+ Turn(): void&lt;br&gt;+ Turn(isOn: bool): void" style="text;strokeColor=none;fillColor=none;align=left;verticalAlign=top;spacingLeft=4;spacingRight=4;overflow=hidden;rotatable=0;points=[[0,0.5],[1,0.5]];portConstraint=eastwest;whiteSpace=wrap;html=1;" parent="0I59w6XoIKjxYQVEed8I-4" vertex="1">
          <mxGeometry y="98" width="160" height="52" as="geometry" />
        </mxCell>
        <mxCell id="0I59w6XoIKjxYQVEed8I-8" value="Manager" style="swimlane;fontStyle=1;align=center;verticalAlign=top;childLayout=stackLayout;horizontal=1;startSize=26;horizontalStack=0;resizeParent=1;resizeParentMax=0;resizeLast=0;collapsible=1;marginBottom=0;whiteSpace=wrap;html=1;" parent="WIyWlLk6GJQsqaUBKTNV-1" vertex="1">
          <mxGeometry x="290" y="20" width="160" height="180" as="geometry" />
        </mxCell>
        <mxCell id="0I59w6XoIKjxYQVEed8I-9" value="- _waterTower: WaterTower&lt;br style=&quot;border-color: var(--border-color);&quot;&gt;- _users: List&amp;lt;User&amp;gt;" style="text;strokeColor=none;fillColor=none;align=left;verticalAlign=top;spacingLeft=4;spacingRight=4;overflow=hidden;rotatable=0;points=[[0,0.5],[1,0.5]];portConstraint=eastwest;whiteSpace=wrap;html=1;" parent="0I59w6XoIKjxYQVEed8I-8" vertex="1">
          <mxGeometry y="26" width="160" height="44" as="geometry" />
        </mxCell>
        <mxCell id="0I59w6XoIKjxYQVEed8I-10" value="" style="line;strokeWidth=1;fillColor=none;align=left;verticalAlign=middle;spacingTop=-1;spacingLeft=3;spacingRight=3;rotatable=0;labelPosition=right;points=[];portConstraint=eastwest;strokeColor=inherit;" parent="0I59w6XoIKjxYQVEed8I-8" vertex="1">
          <mxGeometry y="70" width="160" height="8" as="geometry" />
        </mxCell>
        <mxCell id="0I59w6XoIKjxYQVEed8I-11" value="+ StartWork(): void&lt;br&gt;- GetWaterToUsers(): void&lt;br&gt;+ AddUser(user: User): void&lt;br&gt;+ RemoveUser(name: string, surname: string): User" style="text;strokeColor=none;fillColor=none;align=left;verticalAlign=top;spacingLeft=4;spacingRight=4;overflow=hidden;rotatable=0;points=[[0,0.5],[1,0.5]];portConstraint=eastwest;whiteSpace=wrap;html=1;" parent="0I59w6XoIKjxYQVEed8I-8" vertex="1">
          <mxGeometry y="78" width="160" height="102" as="geometry" />
        </mxCell>
        <mxCell id="0I59w6XoIKjxYQVEed8I-12" value="User" style="swimlane;fontStyle=1;align=center;verticalAlign=top;childLayout=stackLayout;horizontal=1;startSize=26;horizontalStack=0;resizeParent=1;resizeParentMax=0;resizeLast=0;collapsible=1;marginBottom=0;whiteSpace=wrap;html=1;" parent="WIyWlLk6GJQsqaUBKTNV-1" vertex="1">
          <mxGeometry x="130" y="332" width="160" height="158" as="geometry" />
        </mxCell>
        <mxCell id="0I59w6XoIKjxYQVEed8I-13" value="- _name: string&lt;br&gt;- _surname: string&lt;br&gt;- _consuption: double&lt;br&gt;- _used: double&lt;br&gt;+ Name: string&lt;br&gt;+ Surname: string&lt;br&gt;+ Consuption: double&lt;br&gt;+ Used: double" style="text;strokeColor=none;fillColor=none;align=left;verticalAlign=top;spacingLeft=4;spacingRight=4;overflow=hidden;rotatable=0;points=[[0,0.5],[1,0.5]];portConstraint=eastwest;whiteSpace=wrap;html=1;" parent="0I59w6XoIKjxYQVEed8I-12" vertex="1">
          <mxGeometry y="26" width="160" height="124" as="geometry" />
        </mxCell>
        <mxCell id="0I59w6XoIKjxYQVEed8I-14" value="" style="line;strokeWidth=1;fillColor=none;align=left;verticalAlign=middle;spacingTop=-1;spacingLeft=3;spacingRight=3;rotatable=0;labelPosition=right;points=[];portConstraint=eastwest;strokeColor=inherit;" parent="0I59w6XoIKjxYQVEed8I-12" vertex="1">
          <mxGeometry y="150" width="160" height="8" as="geometry" />
        </mxCell>
        <mxCell id="0I59w6XoIKjxYQVEed8I-16" value="Faucet" style="swimlane;fontStyle=1;align=center;verticalAlign=top;childLayout=stackLayout;horizontal=1;startSize=26;horizontalStack=0;resizeParent=1;resizeParentMax=0;resizeLast=0;collapsible=1;marginBottom=0;whiteSpace=wrap;html=1;" parent="WIyWlLk6GJQsqaUBKTNV-1" vertex="1">
          <mxGeometry x="310" y="620" width="160" height="110" as="geometry" />
        </mxCell>
        <mxCell id="0I59w6XoIKjxYQVEed8I-17" value="- _isOpen: bool" style="text;strokeColor=none;fillColor=none;align=left;verticalAlign=top;spacingLeft=4;spacingRight=4;overflow=hidden;rotatable=0;points=[[0,0.5],[1,0.5]];portConstraint=eastwest;whiteSpace=wrap;html=1;" parent="0I59w6XoIKjxYQVEed8I-16" vertex="1">
          <mxGeometry y="26" width="160" height="34" as="geometry" />
        </mxCell>
        <mxCell id="0I59w6XoIKjxYQVEed8I-18" value="" style="line;strokeWidth=1;fillColor=none;align=left;verticalAlign=middle;spacingTop=-1;spacingLeft=3;spacingRight=3;rotatable=0;labelPosition=right;points=[];portConstraint=eastwest;strokeColor=inherit;" parent="0I59w6XoIKjxYQVEed8I-16" vertex="1">
          <mxGeometry y="60" width="160" height="8" as="geometry" />
        </mxCell>
        <mxCell id="0I59w6XoIKjxYQVEed8I-19" value="+ Turn(): void&lt;br&gt;+ Turn(isOpen: bool): void" style="text;strokeColor=none;fillColor=none;align=left;verticalAlign=top;spacingLeft=4;spacingRight=4;overflow=hidden;rotatable=0;points=[[0,0.5],[1,0.5]];portConstraint=eastwest;whiteSpace=wrap;html=1;" parent="0I59w6XoIKjxYQVEed8I-16" vertex="1">
          <mxGeometry y="68" width="160" height="42" as="geometry" />
        </mxCell>
        <mxCell id="YGsAj3JSz4sPQO7wCw1F-9" value="1" style="endArrow=open;html=1;endSize=12;startArrow=diamondThin;startSize=14;startFill=0;edgeStyle=orthogonalEdgeStyle;align=left;verticalAlign=bottom;rounded=0;fontSize=12;curved=1;exitX=0.675;exitY=0.997;exitDx=0;exitDy=0;exitPerimeter=0;entryX=0.5;entryY=0;entryDx=0;entryDy=0;" edge="1" parent="WIyWlLk6GJQsqaUBKTNV-1" source="0I59w6XoIKjxYQVEed8I-3" target="0I59w6XoIKjxYQVEed8I-4">
          <mxGeometry x="-0.6385" y="12" relative="1" as="geometry">
            <mxPoint x="330" y="410" as="sourcePoint" />
            <mxPoint x="490" y="410" as="targetPoint" />
            <mxPoint as="offset" />
          </mxGeometry>
        </mxCell>
        <mxCell id="YGsAj3JSz4sPQO7wCw1F-12" value="1" style="endArrow=open;html=1;endSize=12;startArrow=diamondThin;startSize=14;startFill=0;edgeStyle=orthogonalEdgeStyle;align=left;verticalAlign=bottom;rounded=0;fontSize=12;curved=1;exitX=0.304;exitY=1.002;exitDx=0;exitDy=0;exitPerimeter=0;entryX=0.5;entryY=0;entryDx=0;entryDy=0;" edge="1" parent="WIyWlLk6GJQsqaUBKTNV-1" source="0I59w6XoIKjxYQVEed8I-11" target="0I59w6XoIKjxYQVEed8I-12">
          <mxGeometry x="-0.727" y="4" relative="1" as="geometry">
            <mxPoint x="280" y="250" as="sourcePoint" />
            <mxPoint x="440" y="250" as="targetPoint" />
            <mxPoint as="offset" />
          </mxGeometry>
        </mxCell>
        <mxCell id="YGsAj3JSz4sPQO7wCw1F-13" value="1" style="endArrow=block;endFill=1;html=1;edgeStyle=orthogonalEdgeStyle;align=left;verticalAlign=top;rounded=0;fontSize=12;startSize=8;endSize=8;curved=1;entryX=0.439;entryY=-0.004;entryDx=0;entryDy=0;entryPerimeter=0;exitX=0.834;exitY=1.002;exitDx=0;exitDy=0;exitPerimeter=0;" edge="1" parent="WIyWlLk6GJQsqaUBKTNV-1" source="0I59w6XoIKjxYQVEed8I-11" target="0I59w6XoIKjxYQVEed8I-0">
          <mxGeometry x="0.7613" y="5" relative="1" as="geometry">
            <mxPoint x="390" y="222" as="sourcePoint" />
            <mxPoint x="470" y="250" as="targetPoint" />
            <mxPoint as="offset" />
          </mxGeometry>
        </mxCell>
        <mxCell id="YGsAj3JSz4sPQO7wCw1F-14" value="1" style="edgeLabel;resizable=0;html=1;align=left;verticalAlign=bottom;fontSize=16;" connectable="0" vertex="1" parent="YGsAj3JSz4sPQO7wCw1F-13">
          <mxGeometry x="-1" relative="1" as="geometry">
            <mxPoint x="7" y="24" as="offset" />
          </mxGeometry>
        </mxCell>
        <mxCell id="YGsAj3JSz4sPQO7wCw1F-15" value="1" style="endArrow=block;endFill=1;html=1;edgeStyle=orthogonalEdgeStyle;align=left;verticalAlign=top;rounded=0;fontSize=12;startSize=8;endSize=8;curved=1;exitX=0.414;exitY=1.007;exitDx=0;exitDy=0;exitPerimeter=0;entryX=0.5;entryY=0;entryDx=0;entryDy=0;" edge="1" parent="WIyWlLk6GJQsqaUBKTNV-1" source="0I59w6XoIKjxYQVEed8I-3" target="0I59w6XoIKjxYQVEed8I-16">
          <mxGeometry x="0.7613" y="5" relative="1" as="geometry">
            <mxPoint x="383" y="161" as="sourcePoint" />
            <mxPoint x="525" y="270" as="targetPoint" />
            <mxPoint as="offset" />
          </mxGeometry>
        </mxCell>
        <mxCell id="YGsAj3JSz4sPQO7wCw1F-16" value="1" style="edgeLabel;resizable=0;html=1;align=left;verticalAlign=bottom;fontSize=16;" connectable="0" vertex="1" parent="YGsAj3JSz4sPQO7wCw1F-15">
          <mxGeometry x="-1" relative="1" as="geometry">
            <mxPoint x="-29" y="24" as="offset" />
          </mxGeometry>
        </mxCell>
        <mxCell id="YGsAj3JSz4sPQO7wCw1F-18" value="1..*" style="text;strokeColor=none;fillColor=none;align=left;verticalAlign=top;spacingLeft=4;spacingRight=4;overflow=hidden;rotatable=0;points=[[0,0.5],[1,0.5]];portConstraint=eastwest;whiteSpace=wrap;html=1;fontSize=16;" vertex="1" parent="WIyWlLk6GJQsqaUBKTNV-1">
          <mxGeometry x="590" y="585" width="60" height="20" as="geometry" />
        </mxCell>
        <mxCell id="YGsAj3JSz4sPQO7wCw1F-19" value="1..*" style="text;strokeColor=none;fillColor=none;align=left;verticalAlign=top;spacingLeft=4;spacingRight=4;overflow=hidden;rotatable=0;points=[[0,0.5],[1,0.5]];portConstraint=eastwest;whiteSpace=wrap;html=1;fontSize=16;" vertex="1" parent="WIyWlLk6GJQsqaUBKTNV-1">
          <mxGeometry x="170" y="300" width="60" height="20" as="geometry" />
        </mxCell>
      </root>
    </mxGraphModel>
  </diagram>
</mxfile>
